<svg xmlns="http://www.w3.org/2000/svg" fill="none" viewBox="0 0 322 288">
  <g clip-path="url(#a)">
    <path fill="url(#b)" fill-rule="evenodd" d="M46 0c25 0 46 21 46 48v192c0 27-21 48-46 48S0 267 0 240V48C0 21 21 0 46 0Z" clip-rule="evenodd"/>
    <path fill="url(#c)" fill-rule="evenodd" d="M276 0c25 0 46 21 46 48v192c0 27-21 48-46 48s-46-21-46-48V48c0-27 21-48 46-48Z" clip-rule="evenodd"/>
    <path fill="url(#d)" fill-rule="evenodd" d="M305 11c20 17 23 47 6 68L196 223a45 45 0 0 1-64 6 49 49 0 0 1-6-68L241 17c16-20 45-23 64-6Z" clip-rule="evenodd"/>
    <path fill="url(#e)" d="M307 12a46 46 0 0 0-32-12 45 45 0 0 0-34 17l-1 1c-6 8-10 18-10 30v133l81-102a50 50 0 0 0-5-66Z"/>
    <path fill="url(#f)" fill-rule="evenodd" d="M17 11C36-6 65-3 81 17l115 144c17 21 14 51-6 68a45 45 0 0 1-64-6L11 79a49 49 0 0 1 6-68Z" clip-rule="evenodd"/>
    <path fill="url(#g)" d="M25 5a46 46 0 0 0-10 7A49 49 0 0 0 0 48c0 11 4 22 11 31l81 102V48c0-12-4-22-10-30l-1-1-1-1A45 45 0 0 0 25 5Z"/>
    <path fill="url(#h)" d="m128 226-2-3-1-1a50 50 0 0 1 1-61l35-44 35 44c15 18 14 44 1 61l-1 1a48 48 0 0 1-15 12 45 45 0 0 1-53-9Z"/>
  </g>
  <defs>
    <linearGradient id="b" x1="46" x2="-52.8" y1="93" y2="180.6" gradientUnits="userSpaceOnUse">
      <stop stop-color="#04A645"/>
      <stop offset="1" stop-color="#A4D810"/>
    </linearGradient>
    <linearGradient id="c" x1="276" x2="341.4" y1="81.8" y2="269.2" gradientUnits="userSpaceOnUse">
      <stop stop-color="#D7019B"/>
      <stop offset="1" stop-color="#FF8D24"/>
    </linearGradient>
    <linearGradient id="d" x1="159.8" x2="269.8" y1="189.5" y2="33.6" gradientUnits="userSpaceOnUse">
      <stop stop-color="#543AEF"/>
      <stop offset="1" stop-color="#D218F0"/>
    </linearGradient>
    <linearGradient id="e" x1="238.6" x2="274.5" y1="129" y2="160.5" gradientUnits="userSpaceOnUse">
      <stop stop-color="#AA17EF"/>
      <stop offset="1" stop-color="#D20072"/>
    </linearGradient>
    <linearGradient id="f" x1="168.2" x2="58.7" y1="227.3" y2="36.2" gradientUnits="userSpaceOnUse">
      <stop stop-color="#484EDE"/>
      <stop offset="1" stop-color="#1DB866"/>
    </linearGradient>
    <linearGradient id="g" x1="46" x2="95.8" y1="0" y2="178.9" gradientUnits="userSpaceOnUse">
      <stop stop-color="#15BF59"/>
      <stop offset="1" stop-color="#528BC0"/>
    </linearGradient>
    <linearGradient id="h" x1="120.7" x2="195.5" y1="174" y2="174" gradientUnits="userSpaceOnUse">
      <stop offset="0" stop-color="#3F66C3"/>
      <stop offset="1" stop-color="#6537F0"/>
    </linearGradient>
    <clipPath id="a">
      <path fill="#fff" d="M0 0h322v288H0z"/>
    </clipPath>
  </defs>
</svg>
